<?xml version="1.0" encoding="UTF-8"?>
<!DOCTYPE svg PUBLIC "-//W3C//DTD SVG 1.1//EN" "http://www.w3.org/Graphics/SVG/1.1/DTD/svg11.dtd">
<!-- Creator: CorelDRAW -->
<svg xmlns="http://www.w3.org/2000/svg" xml:space="preserve" width="212px" height="150px" version="1.1" style="shape-rendering:geometricPrecision; text-rendering:geometricPrecision; image-rendering:optimizeQuality; fill-rule:evenodd; clip-rule:evenodd"
viewBox="0 0 212 149.9"
 xmlns:xlink="http://www.w3.org/1999/xlink"
 xmlns:xodm="http://www.corel.com/coreldraw/odm/2003">
 <defs>
  <style type="text/css">
   <![CDATA[
    .fil0 {fill:#0C5937}
    .fil2 {fill:#41854A}
    .fil1 {fill:#F9E8D6}
    .fil5 {fill:#373435;fill-rule:nonzero}
    .fil4 {fill:#00A859;fill-rule:nonzero}
    .fil3 {fill:#F9E8D6;fill-rule:nonzero}
   ]]>
  </style>
 </defs>
 <g id="Capa_x0020_1">
  <metadata id="CorelCorpID_0Corel-Layer"/>
  <g id="_2062881547056">
   <g>
    <circle class="fil0" cx="51" cy="73.59" r="19.59"/>
    <circle class="fil1" cx="51" cy="73.59" r="17.37"/>
    <circle class="fil2" cx="51" cy="73.59" r="15.93"/>
   </g>
   <g>
    <polygon class="fil0" points="46.25,62.49 46.48,63.33 47.25,63.33 46.63,63.84 46.87,64.68 46.25,64.16 45.63,64.68 45.87,63.84 45.24,63.33 46.01,63.33 "/>
    <polygon class="fil0" points="43.9,64.05 44.08,64.67 44.64,64.67 44.18,65.05 44.36,65.66 43.9,65.28 43.45,65.66 43.62,65.05 43.17,64.67 43.73,64.67 "/>
    <polygon class="fil0" points="48.59,64.12 48.77,64.73 49.33,64.73 48.87,65.11 49.05,65.72 48.59,65.34 48.14,65.72 48.31,65.11 47.86,64.73 48.42,64.73 "/>
   </g>
   <path class="fil3" d="M37.73 73.67l1.3 0 0 -2.59c0.19,0.02 0.49,0.02 0.49,0.02 1.03,0 1.51,-0.54 1.51,-1.88 0,-0.79 0.01,-2.17 -1.33,-2.17l-1.97 0 0 6.62zm2.01 -4.49c0,0.67 -0.3,0.67 -0.54,0.67 -0.05,0 -0.1,0 -0.17,-0.01l0 -1.55c0.07,-0.01 0.09,-0.01 0.1,-0.01 0.56,0 0.61,0.2 0.61,0.9z"/>
   <path id="_1" class="fil3" d="M42.55 73.67l0.12 -1.14 0.86 0 0.11 1.14 1.32 0 -1.01 -6.62 -1.71 0 -0.98 6.62 1.29 0zm0.87 -2.41l-0.63 0 0.3 -3.33 0.33 3.33z"/>
   <path id="_2" class="fil3" d="M45.39 73.67l1.78 0c1.48,0 1.48,-1.45 1.48,-2.2l0 -2.51c0,-0.53 0,-1.91 -1.28,-1.91l-1.98 0 0 6.62zm1.97 -2.14c0,0.62 0,0.97 -0.52,0.98 -0.06,0 -0.12,-0.01 -0.18,-0.01l0 -4.25c0.53,0 0.7,0 0.7,0.87l0 2.41z"/>
   <path id="_3" class="fil3" d="M49.29 72.08c0,0.07 0,1.71 1.64,1.71 1.64,0 1.64,-1.47 1.64,-2.05l0 -4.69 -1.3 0 0 4.86c0,0.1 0.03,0.64 -0.33,0.64 -0.35,0 -0.35,-0.54 -0.35,-0.9l0 -4.6 -1.3 0 0 5.03z"/>
   <path id="_4" class="fil3" d="M54.25 73.67l0.11 -1.14 0.86 0 0.12 1.14 1.31 0 -1 -6.62 -1.72 0 -0.97 6.62 1.29 0zm0.86 -2.41l-0.62 0 0.3 -3.33 0.32 3.33z"/>
   <polygon class="fil3" points="40.66,81.63 40.66,75.57 41.51,81.63 42.44,81.63 43.31,75.57 43.31,81.63 44.69,81.63 44.69,74.68 42.44,74.68 41.96,78.59 41.51,74.68 39.28,74.68 39.28,81.63 "/>
   <path id="_1_0" class="fil3" d="M45.41 79.97c0,0.07 0,1.79 1.89,1.79 1.91,0 1.91,-1.54 1.91,-2.15l0 -4.93 -1.51 0 0 5.1c0,0.12 0.04,0.68 -0.39,0.68 -0.4,0 -0.4,-0.56 -0.4,-0.95l0 -4.83 -1.5 0 0 5.29z"/>
   <polygon id="_2_1" class="fil3" points="49.93,81.63 51.3,81.63 51.3,76.96 52.46,81.63 54.1,81.63 54.1,74.68 52.72,74.68 52.72,79.39 51.55,74.68 49.93,74.68 "/>
   <g>
    <path class="fil1" d="M49.86 85.19c0.11,-0.08 0.21,-0.13 0.28,-0.14 0.35,-0.08 2.11,0.66 2.39,0.8l1.08 0.57c0.26,0.14 0.86,0.54 1.14,0.61 0.17,-0.15 0.39,-0.48 0.49,-0.65 -0.46,-0.43 -2.44,-1.14 -3.25,-1.38 -0.25,-0.08 -1.01,-0.22 -1.19,-0.32 1.55,-0.84 2.68,0.6 5.18,0.8 2.22,0.17 3.96,-1.06 4.56,-2.33 -0.93,0.6 -1.03,0.83 -2.44,1.08 -2.25,0.41 -4.26,-1.19 -7.51,0.08 -0.25,0.1 -0.39,0.26 -0.58,0.3 -0.09,0.02 -0.2,0.03 -0.31,0.03l0.16 0.55z"/>
    <path class="fil1" d="M49.86 85.19c0.11,-0.08 0.21,-0.13 0.28,-0.14 0.35,-0.08 2.11,0.66 2.39,0.8l1.08 0.57c0.26,0.14 0.86,0.54 1.14,0.61 0.17,-0.15 0.39,-0.48 0.49,-0.65 -0.46,-0.43 -2.44,-1.14 -3.25,-1.38 -0.25,-0.08 -1.01,-0.22 -1.19,-0.32 1.55,-0.84 2.68,0.6 5.18,0.8 2.22,0.17 3.96,-1.06 4.56,-2.33 -0.93,0.6 -1.03,0.83 -2.44,1.08 -2.25,0.41 -4.26,-1.19 -7.51,0.08 -0.25,0.1 -0.39,0.26 -0.58,0.3 -0.09,0.02 -0.2,0.03 -0.31,0.03l0.16 0.55z"/>
    <path class="fil1" d="M49.86 85.19c0.11,-0.08 0.21,-0.13 0.28,-0.14 0.35,-0.08 2.11,0.66 2.39,0.8l1.08 0.57c0.26,0.14 0.86,0.54 1.14,0.61 0.17,-0.15 0.39,-0.48 0.49,-0.65 -0.46,-0.43 -2.44,-1.14 -3.25,-1.38 -0.25,-0.08 -1.01,-0.22 -1.19,-0.32 1.55,-0.84 2.68,0.6 5.18,0.8 2.22,0.17 3.96,-1.06 4.56,-2.33 -0.93,0.6 -1.03,0.83 -2.44,1.08 -2.25,0.41 -4.26,-1.19 -7.51,0.08 -0.25,0.1 -0.39,0.26 -0.58,0.3 -0.09,0.02 -0.2,0.03 -0.31,0.03l0.16 0.55z"/>
    <path class="fil1" d="M49.86 85.19c0.11,-0.08 0.21,-0.13 0.28,-0.14 0.35,-0.08 2.11,0.66 2.39,0.8l1.08 0.57c0.26,0.14 0.86,0.54 1.14,0.61 0.17,-0.15 0.39,-0.48 0.49,-0.65 -0.46,-0.43 -2.44,-1.14 -3.25,-1.38 -0.25,-0.08 -1.01,-0.22 -1.19,-0.32 1.55,-0.84 2.68,0.6 5.18,0.8 2.22,0.17 3.96,-1.06 4.56,-2.33 -0.93,0.6 -1.03,0.83 -2.44,1.08 -2.25,0.41 -4.26,-1.19 -7.51,0.08 -0.25,0.1 -0.39,0.26 -0.58,0.3 -0.09,0.02 -0.2,0.03 -0.31,0.03l0.16 0.55z"/>
    <path class="fil1" d="M49.86 85.19c0.11,-0.08 0.21,-0.13 0.28,-0.14 0.35,-0.08 2.11,0.66 2.39,0.8l1.08 0.57c0.26,0.14 0.86,0.54 1.14,0.61 0.17,-0.15 0.39,-0.48 0.49,-0.65 -0.46,-0.43 -2.44,-1.14 -3.25,-1.38 -0.25,-0.08 -1.01,-0.22 -1.19,-0.32 1.55,-0.84 2.68,0.6 5.18,0.8 2.22,0.17 3.96,-1.06 4.56,-2.33 -0.93,0.6 -1.03,0.83 -2.44,1.08 -2.25,0.41 -4.26,-1.19 -7.51,0.08 -0.25,0.1 -0.39,0.26 -0.58,0.3 -0.09,0.02 -0.2,0.03 -0.31,0.03l0.16 0.55z"/>
    <path class="fil1" d="M58.02 81.84l2.39 -1.02c2.04,-0.86 3.97,-3.41 3.6,-5.28 -0.18,0.28 -0.26,0.88 -0.82,1.53 -0.96,1.09 -2.27,1.7 -3.4,3.01 -0.22,0.25 -0.26,0.49 -0.62,0.69 0.19,-0.49 0.92,-1.11 0.92,-2.55 0,-0.54 -0.08,-1.06 -0.15,-1.62 -0.11,-0.91 -0.02,-1.15 -0.06,-1.62 -0.2,0.17 -0.65,1.39 -0.71,1.58 -0.43,1.46 -0.13,4.08 -1.15,5.28z"/>
    <path class="fil1" d="M58.02 81.84l2.39 -1.02c2.04,-0.86 3.97,-3.41 3.6,-5.28 -0.18,0.28 -0.26,0.88 -0.82,1.53 -0.96,1.09 -2.27,1.7 -3.4,3.01 -0.22,0.25 -0.26,0.49 -0.62,0.69 0.19,-0.49 0.92,-1.11 0.92,-2.55 0,-0.54 -0.08,-1.06 -0.15,-1.62 -0.11,-0.91 -0.02,-1.15 -0.06,-1.62 -0.2,0.17 -0.65,1.39 -0.71,1.58 -0.43,1.46 -0.13,4.08 -1.15,5.28z"/>
    <path class="fil1" d="M58.02 81.84l2.39 -1.02c2.04,-0.86 3.97,-3.41 3.6,-5.28 -0.18,0.28 -0.26,0.88 -0.82,1.53 -0.96,1.09 -2.27,1.7 -3.4,3.01 -0.22,0.25 -0.26,0.49 -0.62,0.69 0.19,-0.49 0.92,-1.11 0.92,-2.55 0,-0.54 -0.08,-1.06 -0.15,-1.62 -0.11,-0.91 -0.02,-1.15 -0.06,-1.62 -0.2,0.17 -0.65,1.39 -0.71,1.58 -0.43,1.46 -0.13,4.08 -1.15,5.28z"/>
    <path class="fil1" d="M58.02 81.84l2.39 -1.02c2.04,-0.86 3.97,-3.41 3.6,-5.28 -0.18,0.28 -0.26,0.88 -0.82,1.53 -0.96,1.09 -2.27,1.7 -3.4,3.01 -0.22,0.25 -0.26,0.49 -0.62,0.69 0.19,-0.49 0.92,-1.11 0.92,-2.55 0,-0.54 -0.08,-1.06 -0.15,-1.62 -0.11,-0.91 -0.02,-1.15 -0.06,-1.62 -0.2,0.17 -0.65,1.39 -0.71,1.58 -0.43,1.46 -0.13,4.08 -1.15,5.28z"/>
    <path class="fil1" d="M58.02 81.84l2.39 -1.02c2.04,-0.86 3.97,-3.41 3.6,-5.28 -0.18,0.28 -0.26,0.88 -0.82,1.53 -0.96,1.09 -2.27,1.7 -3.4,3.01 -0.22,0.25 -0.26,0.49 -0.62,0.69 0.19,-0.49 0.92,-1.11 0.92,-2.55 0,-0.54 -0.08,-1.06 -0.15,-1.62 -0.11,-0.91 -0.02,-1.15 -0.06,-1.62 -0.2,0.17 -0.65,1.39 -0.71,1.58 -0.43,1.46 -0.13,4.08 -1.15,5.28z"/>
    <path class="fil1" d="M53.88 83.53c1.72,-0.02 4.24,0.12 5.66,-0.42 1.35,-0.52 2.86,-1.94 3.01,-3.17 -0.16,0.13 -0.12,0.12 -0.22,0.28 -0.08,0.12 -0.14,0.16 -0.25,0.28 -0.15,0.16 -0.37,0.35 -0.6,0.5 -0.47,0.3 -1.06,0.55 -1.66,0.74 -0.63,0.2 -1.29,0.36 -1.92,0.56 -0.64,0.2 -1.22,0.51 -1.86,0.67 0.01,-0.01 0.02,-0.04 0.03,-0.03l0.25 -0.18c0.11,-0.06 0.2,-0.1 0.31,-0.16 1.06,-0.59 1.35,-1.59 1.54,-2.69 0.07,-0.48 0.21,-0.84 0.32,-1.24 -0.5,0.33 -1.63,2.07 -1.96,2.64 -0.57,0.99 -1.2,1.49 -2.65,2.22z"/>
    <path class="fil1" d="M53.88 83.53c1.72,-0.02 4.24,0.12 5.66,-0.42 1.35,-0.52 2.86,-1.94 3.01,-3.17 -0.16,0.13 -0.12,0.12 -0.22,0.28 -0.08,0.12 -0.14,0.16 -0.25,0.28 -0.15,0.16 -0.37,0.35 -0.6,0.5 -0.47,0.3 -1.06,0.55 -1.66,0.74 -0.63,0.2 -1.29,0.36 -1.92,0.56 -0.64,0.2 -1.22,0.51 -1.86,0.67 0.01,-0.01 0.02,-0.04 0.03,-0.03l0.25 -0.18c0.11,-0.06 0.2,-0.1 0.31,-0.16 1.06,-0.59 1.35,-1.59 1.54,-2.69 0.07,-0.48 0.21,-0.84 0.32,-1.24 -0.5,0.33 -1.63,2.07 -1.96,2.64 -0.57,0.99 -1.2,1.49 -2.65,2.22z"/>
    <path class="fil1" d="M53.88 83.53c1.72,-0.02 4.24,0.12 5.66,-0.42 1.35,-0.52 2.86,-1.94 3.01,-3.17 -0.16,0.13 -0.12,0.12 -0.22,0.28 -0.08,0.12 -0.14,0.16 -0.25,0.28 -0.15,0.16 -0.37,0.35 -0.6,0.5 -0.47,0.3 -1.06,0.55 -1.66,0.74 -0.63,0.2 -1.29,0.36 -1.92,0.56 -0.64,0.2 -1.22,0.51 -1.86,0.67 0.01,-0.01 0.02,-0.04 0.03,-0.03l0.25 -0.18c0.11,-0.06 0.2,-0.1 0.31,-0.16 1.06,-0.59 1.35,-1.59 1.54,-2.69 0.07,-0.48 0.21,-0.84 0.32,-1.24 -0.5,0.33 -1.63,2.07 -1.96,2.64 -0.57,0.99 -1.2,1.49 -2.65,2.22z"/>
    <path class="fil1" d="M53.88 83.53c1.72,-0.02 4.24,0.12 5.66,-0.42 1.35,-0.52 2.86,-1.94 3.01,-3.17 -0.16,0.13 -0.12,0.12 -0.22,0.28 -0.08,0.12 -0.14,0.16 -0.25,0.28 -0.15,0.16 -0.37,0.35 -0.6,0.5 -0.47,0.3 -1.06,0.55 -1.66,0.74 -0.63,0.2 -1.29,0.36 -1.92,0.56 -0.64,0.2 -1.22,0.51 -1.86,0.67 0.01,-0.01 0.02,-0.04 0.03,-0.03l0.25 -0.18c0.11,-0.06 0.2,-0.1 0.31,-0.16 1.06,-0.59 1.35,-1.59 1.54,-2.69 0.07,-0.48 0.21,-0.84 0.32,-1.24 -0.5,0.33 -1.63,2.07 -1.96,2.64 -0.57,0.99 -1.2,1.49 -2.65,2.22z"/>
    <path class="fil1" d="M53.88 83.53c1.72,-0.02 4.24,0.12 5.66,-0.42 1.35,-0.52 2.86,-1.94 3.01,-3.17 -0.16,0.13 -0.12,0.12 -0.22,0.28 -0.08,0.12 -0.14,0.16 -0.25,0.28 -0.15,0.16 -0.37,0.35 -0.6,0.5 -0.47,0.3 -1.06,0.55 -1.66,0.74 -0.63,0.2 -1.29,0.36 -1.92,0.56 -0.64,0.2 -1.22,0.51 -1.86,0.67 0.01,-0.01 0.02,-0.04 0.03,-0.03l0.25 -0.18c0.11,-0.06 0.2,-0.1 0.31,-0.16 1.06,-0.59 1.35,-1.59 1.54,-2.69 0.07,-0.48 0.21,-0.84 0.32,-1.24 -0.5,0.33 -1.63,2.07 -1.96,2.64 -0.57,0.99 -1.2,1.49 -2.65,2.22z"/>
    <path class="fil1" d="M60.54 78.66l1.52 -1.51c0.57,-0.54 1.04,-1.06 1.39,-1.62 0.6,-0.94 1.3,-2.85 0.46,-4.51 -0.07,0.68 0.09,0.72 -0.28,1.65 -0.45,1.09 -0.99,1.44 -1.58,2.82 -0.15,0.34 -0.45,1.26 -0.66,1.49 0.01,-0.15 0.1,-0.39 0.14,-0.56 0.05,-0.2 0.07,-0.39 0.08,-0.63 0.07,-1.64 -1.03,-2.69 -1.45,-4.25l-0.09 0.41c-0.01,0.14 -0.02,0.25 -0.02,0.41 -0.01,0.31 0.01,0.56 0.04,0.88 0.15,1.48 0.75,3.1 0.6,4.61 -0.03,0.29 -0.15,0.55 -0.15,0.81z"/>
    <path class="fil1" d="M60.54 78.66l1.52 -1.51c0.57,-0.54 1.04,-1.06 1.39,-1.62 0.6,-0.94 1.3,-2.85 0.46,-4.51 -0.07,0.68 0.09,0.72 -0.28,1.65 -0.45,1.09 -0.99,1.44 -1.58,2.82 -0.15,0.34 -0.45,1.26 -0.66,1.49 0.01,-0.15 0.1,-0.39 0.14,-0.56 0.05,-0.2 0.07,-0.39 0.08,-0.63 0.07,-1.64 -1.03,-2.69 -1.45,-4.25l-0.09 0.41c-0.01,0.14 -0.02,0.25 -0.02,0.41 -0.01,0.31 0.01,0.56 0.04,0.88 0.15,1.48 0.75,3.1 0.6,4.61 -0.03,0.29 -0.15,0.55 -0.15,0.81z"/>
    <path class="fil1" d="M60.54 78.66l1.52 -1.51c0.57,-0.54 1.04,-1.06 1.39,-1.62 0.6,-0.94 1.3,-2.85 0.46,-4.51 -0.07,0.68 0.09,0.72 -0.28,1.65 -0.45,1.09 -0.99,1.44 -1.58,2.82 -0.15,0.34 -0.45,1.26 -0.66,1.49 0.01,-0.15 0.1,-0.39 0.14,-0.56 0.05,-0.2 0.07,-0.39 0.08,-0.63 0.07,-1.64 -1.03,-2.69 -1.45,-4.25l-0.09 0.41c-0.01,0.14 -0.02,0.25 -0.02,0.41 -0.01,0.31 0.01,0.56 0.04,0.88 0.15,1.48 0.75,3.1 0.6,4.61 -0.03,0.29 -0.15,0.55 -0.15,0.81z"/>
    <path class="fil1" d="M60.54 78.66l1.52 -1.51c0.57,-0.54 1.04,-1.06 1.39,-1.62 0.6,-0.94 1.3,-2.85 0.46,-4.51 -0.07,0.68 0.09,0.72 -0.28,1.65 -0.45,1.09 -0.99,1.44 -1.58,2.82 -0.15,0.34 -0.45,1.26 -0.66,1.49 0.01,-0.15 0.1,-0.39 0.14,-0.56 0.05,-0.2 0.07,-0.39 0.08,-0.63 0.07,-1.64 -1.03,-2.69 -1.45,-4.25l-0.09 0.41c-0.01,0.14 -0.02,0.25 -0.02,0.41 -0.01,0.31 0.01,0.56 0.04,0.88 0.15,1.48 0.75,3.1 0.6,4.61 -0.03,0.29 -0.15,0.55 -0.15,0.81z"/>
    <path class="fil1" d="M60.54 78.66l1.52 -1.51c0.57,-0.54 1.04,-1.06 1.39,-1.62 0.6,-0.94 1.3,-2.85 0.46,-4.51 -0.07,0.68 0.09,0.72 -0.28,1.65 -0.45,1.09 -0.99,1.44 -1.58,2.82 -0.15,0.34 -0.45,1.26 -0.66,1.49 0.01,-0.15 0.1,-0.39 0.14,-0.56 0.05,-0.2 0.07,-0.39 0.08,-0.63 0.07,-1.64 -1.03,-2.69 -1.45,-4.25l-0.09 0.41c-0.01,0.14 -0.02,0.25 -0.02,0.41 -0.01,0.31 0.01,0.56 0.04,0.88 0.15,1.48 0.75,3.1 0.6,4.61 -0.03,0.29 -0.15,0.55 -0.15,0.81z"/>
    <path class="fil1" d="M62.09 72.92c-0.19,-1 0.08,-1.57 -1.15,-2.84 -0.51,-0.52 -1.06,-0.95 -1.55,-1.48 -0.15,-0.17 -0.3,-0.42 -0.47,-0.57 0.1,0.85 1.09,2.53 1.53,3.22 0.87,1.37 1.14,1.43 1.53,3.21l0.77 -1.66c0.28,-0.56 0.53,-1.07 0.63,-1.8 0.09,-0.71 0.07,-1.47 -0.13,-2.26 -0.15,-0.6 -0.46,-1.4 -0.84,-1.93l-0.23 -0.23c0.68,2.08 -0.1,2.86 -0.06,4.76 0.01,0.38 0.14,1.38 -0.03,1.58z"/>
    <path class="fil1" d="M62.09 72.92c-0.19,-1 0.08,-1.57 -1.15,-2.84 -0.51,-0.52 -1.06,-0.95 -1.55,-1.48 -0.15,-0.17 -0.3,-0.42 -0.47,-0.57 0.1,0.85 1.09,2.53 1.53,3.22 0.87,1.37 1.14,1.43 1.53,3.21l0.77 -1.66c0.28,-0.56 0.53,-1.07 0.63,-1.8 0.09,-0.71 0.07,-1.47 -0.13,-2.26 -0.15,-0.6 -0.46,-1.4 -0.84,-1.93l-0.23 -0.23c0.68,2.08 -0.1,2.86 -0.06,4.76 0.01,0.38 0.14,1.38 -0.03,1.58z"/>
    <path class="fil1" d="M62.09 72.92c-0.19,-1 0.08,-1.57 -1.15,-2.84 -0.51,-0.52 -1.06,-0.95 -1.55,-1.48 -0.15,-0.17 -0.3,-0.42 -0.47,-0.57 0.1,0.85 1.09,2.53 1.53,3.22 0.87,1.37 1.14,1.43 1.53,3.21l0.77 -1.66c0.28,-0.56 0.53,-1.07 0.63,-1.8 0.09,-0.71 0.07,-1.47 -0.13,-2.26 -0.15,-0.6 -0.46,-1.4 -0.84,-1.93l-0.23 -0.23c0.68,2.08 -0.1,2.86 -0.06,4.76 0.01,0.38 0.14,1.38 -0.03,1.58z"/>
    <path class="fil1" d="M62.09 72.92c-0.19,-1 0.08,-1.57 -1.15,-2.84 -0.51,-0.52 -1.06,-0.95 -1.55,-1.48 -0.15,-0.17 -0.3,-0.42 -0.47,-0.57 0.1,0.85 1.09,2.53 1.53,3.22 0.87,1.37 1.14,1.43 1.53,3.21l0.77 -1.66c0.28,-0.56 0.53,-1.07 0.63,-1.8 0.09,-0.71 0.07,-1.47 -0.13,-2.26 -0.15,-0.6 -0.46,-1.4 -0.84,-1.93l-0.23 -0.23c0.68,2.08 -0.1,2.86 -0.06,4.76 0.01,0.38 0.14,1.38 -0.03,1.58z"/>
    <path class="fil1" d="M62.09 72.92c-0.19,-1 0.08,-1.57 -1.15,-2.84 -0.51,-0.52 -1.06,-0.95 -1.55,-1.48 -0.15,-0.17 -0.3,-0.42 -0.47,-0.57 0.1,0.85 1.09,2.53 1.53,3.22 0.87,1.37 1.14,1.43 1.53,3.21l0.77 -1.66c0.28,-0.56 0.53,-1.07 0.63,-1.8 0.09,-0.71 0.07,-1.47 -0.13,-2.26 -0.15,-0.6 -0.46,-1.4 -0.84,-1.93l-0.23 -0.23c0.68,2.08 -0.1,2.86 -0.06,4.76 0.01,0.38 0.14,1.38 -0.03,1.58z"/>
    <path class="fil1" d="M61.18 68.53c-0.2,-0.04 -0.3,-0.41 -0.38,-0.57 -0.12,-0.23 -0.26,-0.41 -0.42,-0.59 -0.5,-0.57 -1.57,-1.13 -2.29,-1.42 -0.41,-0.17 -0.73,-0.45 -1.12,-0.73 0.53,1.17 1.45,1.94 2.28,2.58 1.04,0.8 1.57,1.09 2.42,2.4 0.05,-0.18 -0.07,-1.21 0.05,-1.97 0.22,-1.53 -0.12,-2.86 -1.12,-4.17 -0.26,-0.33 -1.11,-1.13 -1.44,-1.24 0.86,1.13 0.79,1.22 1.08,2.62 0.22,1.11 0.49,2.06 0.94,3.09z"/>
    <path class="fil1" d="M61.18 68.53c-0.2,-0.04 -0.3,-0.41 -0.38,-0.57 -0.12,-0.23 -0.26,-0.41 -0.42,-0.59 -0.5,-0.57 -1.57,-1.13 -2.29,-1.42 -0.41,-0.17 -0.73,-0.45 -1.12,-0.73 0.53,1.17 1.45,1.94 2.28,2.58 1.04,0.8 1.57,1.09 2.42,2.4 0.05,-0.18 -0.07,-1.21 0.05,-1.97 0.22,-1.53 -0.12,-2.86 -1.12,-4.17 -0.26,-0.33 -1.11,-1.13 -1.44,-1.24 0.86,1.13 0.79,1.22 1.08,2.62 0.22,1.11 0.49,2.06 0.94,3.09z"/>
    <path class="fil1" d="M61.18 68.53c-0.2,-0.04 -0.3,-0.41 -0.38,-0.57 -0.12,-0.23 -0.26,-0.41 -0.42,-0.59 -0.5,-0.57 -1.57,-1.13 -2.29,-1.42 -0.41,-0.17 -0.73,-0.45 -1.12,-0.73 0.53,1.17 1.45,1.94 2.28,2.58 1.04,0.8 1.57,1.09 2.42,2.4 0.05,-0.18 -0.07,-1.21 0.05,-1.97 0.22,-1.53 -0.12,-2.86 -1.12,-4.17 -0.26,-0.33 -1.11,-1.13 -1.44,-1.24 0.86,1.13 0.79,1.22 1.08,2.62 0.22,1.11 0.49,2.06 0.94,3.09z"/>
    <path class="fil1" d="M61.18 68.53c-0.2,-0.04 -0.3,-0.41 -0.38,-0.57 -0.12,-0.23 -0.26,-0.41 -0.42,-0.59 -0.5,-0.57 -1.57,-1.13 -2.29,-1.42 -0.41,-0.17 -0.73,-0.45 -1.12,-0.73 0.53,1.17 1.45,1.94 2.28,2.58 1.04,0.8 1.57,1.09 2.42,2.4 0.05,-0.18 -0.07,-1.21 0.05,-1.97 0.22,-1.53 -0.12,-2.86 -1.12,-4.17 -0.26,-0.33 -1.11,-1.13 -1.44,-1.24 0.86,1.13 0.79,1.22 1.08,2.62 0.22,1.11 0.49,2.06 0.94,3.09z"/>
    <path class="fil1" d="M61.18 68.53c-0.2,-0.04 -0.3,-0.41 -0.38,-0.57 -0.12,-0.23 -0.26,-0.41 -0.42,-0.59 -0.5,-0.57 -1.57,-1.13 -2.29,-1.42 -0.41,-0.17 -0.73,-0.45 -1.12,-0.73 0.53,1.17 1.45,1.94 2.28,2.58 1.04,0.8 1.57,1.09 2.42,2.4 0.05,-0.18 -0.07,-1.21 0.05,-1.97 0.22,-1.53 -0.12,-2.86 -1.12,-4.17 -0.26,-0.33 -1.11,-1.13 -1.44,-1.24 0.86,1.13 0.79,1.22 1.08,2.62 0.22,1.11 0.49,2.06 0.94,3.09z"/>
    <path class="fil1" d="M59.19 65.31c-0.28,-0.16 -0.62,-0.84 -2.11,-1.38 -0.79,-0.28 -1.06,-0.34 -1.77,-0.75l-0.4 -0.27c-0.01,-0.01 -0.02,-0.02 -0.04,-0.03l-0.13 -0.06c0.53,1.21 1.57,1.76 2.47,2.16 0.24,0.11 0.48,0.2 0.74,0.32 0.44,0.2 1.04,0.45 1.42,0.72l0.68 0.52c-0.57,-1.18 -0.5,-2.57 -1.25,-3.65 -0.53,-0.77 -1.73,-1.62 -2.73,-1.58l0.26 0.15c1.14,0.67 1.58,2.16 2.46,3.34 0.13,0.17 0.28,0.33 0.4,0.51z"/>
    <path class="fil1" d="M59.19 65.31c-0.28,-0.16 -0.62,-0.84 -2.11,-1.38 -0.79,-0.28 -1.06,-0.34 -1.77,-0.75l-0.4 -0.27c-0.01,-0.01 -0.02,-0.02 -0.04,-0.03l-0.13 -0.06c0.53,1.21 1.57,1.76 2.47,2.16 0.24,0.11 0.48,0.2 0.74,0.32 0.44,0.2 1.04,0.45 1.42,0.72l0.68 0.52c-0.57,-1.18 -0.5,-2.57 -1.25,-3.65 -0.53,-0.77 -1.73,-1.62 -2.73,-1.58l0.26 0.15c1.14,0.67 1.58,2.16 2.46,3.34 0.13,0.17 0.28,0.33 0.4,0.51z"/>
    <path class="fil1" d="M59.19 65.31c-0.28,-0.16 -0.62,-0.84 -2.11,-1.38 -0.79,-0.28 -1.06,-0.34 -1.77,-0.75l-0.4 -0.27c-0.01,-0.01 -0.02,-0.02 -0.04,-0.03l-0.13 -0.06c0.53,1.21 1.57,1.76 2.47,2.16 0.24,0.11 0.48,0.2 0.74,0.32 0.44,0.2 1.04,0.45 1.42,0.72l0.68 0.52c-0.57,-1.18 -0.5,-2.57 -1.25,-3.65 -0.53,-0.77 -1.73,-1.62 -2.73,-1.58l0.26 0.15c1.14,0.67 1.58,2.16 2.46,3.34 0.13,0.17 0.28,0.33 0.4,0.51z"/>
    <path class="fil1" d="M59.19 65.31c-0.28,-0.16 -0.62,-0.84 -2.11,-1.38 -0.79,-0.28 -1.06,-0.34 -1.77,-0.75l-0.4 -0.27c-0.01,-0.01 -0.02,-0.02 -0.04,-0.03l-0.13 -0.06c0.53,1.21 1.57,1.76 2.47,2.16 0.24,0.11 0.48,0.2 0.74,0.32 0.44,0.2 1.04,0.45 1.42,0.72l0.68 0.52c-0.57,-1.18 -0.5,-2.57 -1.25,-3.65 -0.53,-0.77 -1.73,-1.62 -2.73,-1.58l0.26 0.15c1.14,0.67 1.58,2.16 2.46,3.34 0.13,0.17 0.28,0.33 0.4,0.51z"/>
    <path class="fil1" d="M59.19 65.31c-0.28,-0.16 -0.62,-0.84 -2.11,-1.38 -0.79,-0.28 -1.06,-0.34 -1.77,-0.75l-0.4 -0.27c-0.01,-0.01 -0.02,-0.02 -0.04,-0.03l-0.13 -0.06c0.53,1.21 1.57,1.76 2.47,2.16 0.24,0.11 0.48,0.2 0.74,0.32 0.44,0.2 1.04,0.45 1.42,0.72l0.68 0.52c-0.57,-1.18 -0.5,-2.57 -1.25,-3.65 -0.53,-0.77 -1.73,-1.62 -2.73,-1.58l0.26 0.15c1.14,0.67 1.58,2.16 2.46,3.34 0.13,0.17 0.28,0.33 0.4,0.51z"/>
    <path class="fil1" d="M57.57 63.71c-1.02,-1.46 -1.66,-2.58 -3.62,-2.96 -0.38,-0.07 -1.29,-0.23 -1.65,-0.23 1.06,0.43 2.1,1.65 3.83,2.55 0.29,0.15 1.15,0.57 1.44,0.64z"/>
    <path class="fil1" d="M57.57 63.71c-1.02,-1.46 -1.66,-2.58 -3.62,-2.96 -0.38,-0.07 -1.29,-0.23 -1.65,-0.23 1.06,0.43 2.1,1.65 3.83,2.55 0.29,0.15 1.15,0.57 1.44,0.64z"/>
    <path class="fil1" d="M57.57 63.71c-1.02,-1.46 -1.66,-2.58 -3.62,-2.96 -0.38,-0.07 -1.29,-0.23 -1.65,-0.23 1.06,0.43 2.1,1.65 3.83,2.55 0.29,0.15 1.15,0.57 1.44,0.64z"/>
    <path class="fil1" d="M57.57 63.71c-1.02,-1.46 -1.66,-2.58 -3.62,-2.96 -0.38,-0.07 -1.29,-0.23 -1.65,-0.23 1.06,0.43 2.1,1.65 3.83,2.55 0.29,0.15 1.15,0.57 1.44,0.64z"/>
    <path class="fil1" d="M57.57 63.71c-1.02,-1.46 -1.66,-2.58 -3.62,-2.96 -0.38,-0.07 -1.29,-0.23 -1.65,-0.23 1.06,0.43 2.1,1.65 3.83,2.55 0.29,0.15 1.15,0.57 1.44,0.64z"/>
   </g>
  </g>
  <path class="fil4" d="M77.59 78.5l2.24 0 0 -3.63c0.31,0.02 0.82,0.02 0.82,0.02 1.77,0 2.6,-0.76 2.6,-2.64 0,-1.11 0.02,-3.05 -2.28,-3.05l-3.38 0 0 9.3zm3.45 -6.31c0,0.95 -0.53,0.95 -0.93,0.95 -0.09,0 -0.18,0 -0.28,-0.01l0 -2.17c0.11,-0.03 0.14,-0.03 0.16,-0.03 0.96,0 1.05,0.28 1.05,1.26z"/>
  <path id="_1_2" class="fil4" d="M85.85 78.5l0.2 -1.6 1.47 0 0.2 1.6 2.25 0 -1.72 -9.3 -2.94 0 -1.67 9.3 2.21 0zm1.48 -3.39l-1.07 0 0.51 -4.67 0.56 4.67z"/>
  <path id="_2_3" class="fil4" d="M90.72 78.5l3.04 0c2.54,0 2.54,-2.03 2.54,-3.08l0 -3.53c0,-0.75 0,-2.69 -2.19,-2.69l-3.39 0 0 9.3zm3.38 -3c0,0.86 0,1.37 -0.9,1.38 -0.11,0 -0.21,-0.01 -0.31,-0.03l0 -5.95c0.9,0 1.21,0 1.21,1.21l0 3.39z"/>
  <path id="_3_4" class="fil4" d="M97.4 76.27c0,0.09 0,2.41 2.8,2.41 2.82,0 2.82,-2.07 2.82,-2.89l0 -6.59 -2.23 0 0 6.83c0,0.15 0.06,0.91 -0.57,0.91 -0.6,0 -0.6,-0.76 -0.6,-1.28l0 -6.46 -2.22 0 0 7.07z"/>
  <path id="_4_5" class="fil4" d="M105.89 78.5l0.2 -1.6 1.47 0 0.2 1.6 2.25 0 -1.72 -9.3 -2.94 0 -1.67 9.3 2.21 0zm1.48 -3.39l-1.07 0 0.51 -4.67 0.56 4.67z"/>
  <polygon id="_5" class="fil4" points="112.78,78.5 112.78,70.38 114.03,78.5 115.41,78.5 116.69,70.38 116.69,78.5 118.74,78.5 118.74,69.2 115.41,69.2 114.71,74.44 114.03,69.2 110.74,69.2 110.74,78.5 "/>
  <path id="_6" class="fil4" d="M119.8 76.27c0,0.09 0,2.41 2.8,2.41 2.82,0 2.82,-2.07 2.82,-2.89l0 -6.59 -2.23 0 0 6.83c0,0.15 0.06,0.91 -0.57,0.91 -0.6,0 -0.6,-0.76 -0.6,-1.28l0 -6.46 -2.22 0 0 7.07z"/>
  <polygon id="_7" class="fil4" points="126.48,78.5 128.51,78.5 128.51,72.25 130.22,78.5 132.65,78.5 132.65,69.2 130.6,69.2 130.6,75.5 128.88,69.2 126.48,69.2 "/>
  <path id="_8" class="fil5" d="M139.05 71.63c0,-0.51 0.24,-0.74 0.5,-0.74 0.38,0 0.48,0.32 0.48,0.77 0,2.4 -3.24,2.16 -3.24,6.84l5.29 0 0 -1.76 -3.03 0c0.48,-1.77 3.14,-2.37 3.14,-5.12 0,-1.52 -0.82,-2.44 -2.58,-2.44 -2.65,0 -2.63,2.14 -2.63,3.42l2.03 0 0.04 -0.97z"/>
  <path id="_9" class="fil5" d="M145.47 78.69c2.34,0 2.65,-1.44 2.65,-2.71l0 -4.6c0,-1.15 -0.79,-2.18 -2.56,-2.18 -1.71,0 -2.51,0.96 -2.51,2.25l0 4.52c0,1.32 0.11,2.71 2.42,2.72zm0.09 -7.8c0.46,0 0.42,0.63 0.42,1.45l0 4.03c0,0.54 -0.18,0.66 -0.4,0.66 -0.24,0 -0.44,-0.16 -0.44,-0.64l0 -4.06c0,-0.81 -0.06,-1.44 0.42,-1.44z"/>
  <path id="_10" class="fil5" d="M151.1 71.63c0,-0.51 0.24,-0.74 0.5,-0.74 0.39,0 0.48,0.32 0.48,0.77 0,2.4 -3.23,2.16 -3.23,6.84l5.29 0 0 -1.76 -3.04 0c0.48,-1.77 3.14,-2.37 3.14,-5.12 0,-1.52 -0.82,-2.44 -2.58,-2.44 -2.65,0 -2.63,2.14 -2.63,3.42l2.03 0 0.04 -0.97z"/>
  <path id="_11" class="fil5" d="M154.85 74.91l0 1.84 2.71 0 0 1.75 2.03 0 0 -1.75 0.7 0 0 -1.62 -0.7 0 0 -3.97 -0.77 0c-0.23,1.23 -1.26,2.71 -1.26,2.72l0 1.25 -1.52 0c1.37,-2.13 2.03,-3.61 2.28,-5.83l-2.13 0c-0.03,2.46 -1.34,5.57 -1.34,5.61z"/>
 </g>
</svg>
